<svg width="212" height="212" viewBox="0 0 212 212" fill="none" xmlns="http://www.w3.org/2000/svg">
<path d="M161 106C161 136.376 136.376 161 106 161C75.6243 161 51 136.376 51 106C51 75.6243 75.6243 51 106 51C136.376 51 161 75.6243 161 106Z" fill="white"/>
<path d="M101 175.5C101 172.462 103.462 170 106.5 170C109.538 170 112 172.462 112 175.5V206.5C112 209.538 109.538 212 106.5 212C103.462 212 101 209.538 101 206.5V175.5Z" fill="white"/>
<path d="M206.5 100C209.538 100 212 102.462 212 105.5C212 108.538 209.538 111 206.5 111H175.5C172.462 111 170 108.538 170 105.5C170 102.462 172.462 100 175.5 100H206.5Z" fill="white"/>
<path d="M36.5 100C39.5376 100 42 102.462 42 105.5C42 108.538 39.5376 111 36.5 111H5.5C2.46243 111 -1.32776e-07 108.538 0 105.5C1.32776e-07 102.462 2.46243 100 5.5 100H36.5Z" fill="white"/>
<path d="M101 5.5C101 2.46243 103.462 0 106.5 0C109.538 0 112 2.46243 112 5.5V36.5C112 39.5376 109.538 42 106.5 42C103.462 42 101 39.5376 101 36.5V5.5Z" fill="white"/>
<path d="M145.449 144.842C123.997 166.294 89.2167 166.294 67.7647 144.842C46.3128 123.39 46.3128 88.6097 67.7647 67.1578C89.2167 45.7058 123.997 45.7058 145.449 67.1578C166.901 88.6097 166.901 123.39 145.449 144.842Z" fill="white"/>
<path d="M53.8058 151.518C55.8169 149.507 59.0776 149.507 61.0887 151.518C63.0998 153.529 63.0998 156.79 61.0887 158.801L38.633 181.257C36.6219 183.268 33.3613 183.268 31.3501 181.257C29.339 179.246 29.339 175.985 31.3501 173.974L53.8058 151.518Z" fill="white"/>
<path d="M181.257 173.367C183.268 175.378 183.268 178.639 181.257 180.65C179.246 182.661 175.985 182.661 173.974 180.65L151.518 158.194C149.507 156.183 149.507 152.922 151.518 150.911C153.529 148.9 156.79 148.9 158.801 150.911L181.257 173.367Z" fill="white"/>
<path d="M61.0887 53.1989C63.0998 55.21 63.0998 58.4707 61.0887 60.4818C59.0776 62.4929 55.8169 62.4929 53.8058 60.4818L31.3501 38.0261C29.339 36.015 29.339 32.7543 31.3501 30.7432C33.3613 28.7321 36.6219 28.7321 38.6331 30.7432L61.0887 53.1989Z" fill="white"/>
<path d="M173.974 31.3501C175.985 29.339 179.246 29.339 181.257 31.3501C183.268 33.3613 183.268 36.6219 181.257 38.633L158.801 61.0887C156.79 63.0998 153.529 63.0998 151.518 61.0887C149.507 59.0776 149.507 55.8169 151.518 53.8058L173.974 31.3501Z" fill="white"/>
</svg>
