<svg width="169" height="149" viewBox="0 0 169 149" fill="none" xmlns="http://www.w3.org/2000/svg">
<path d="M75.8398 5C79.6888 -1.66667 89.3113 -1.66666 93.1603 5L167.205 133.25C171.054 139.917 166.243 148.25 158.545 148.25H10.4548C2.75682 148.25 -2.05443 139.917 1.79458 133.25L75.8398 5Z" fill="#F29837"/>
<path d="M89.5 40.7273L88.6477 103.455H78.7614L77.9091 40.7273H89.5ZM83.7045 128.682C81.6023 128.682 79.7983 127.929 78.2926 126.423C76.7869 124.918 76.0341 123.114 76.0341 121.011C76.0341 118.909 76.7869 117.105 78.2926 115.599C79.7983 114.094 81.6023 113.341 83.7045 113.341C85.8068 113.341 87.6108 114.094 89.1165 115.599C90.6222 117.105 91.375 118.909 91.375 121.011C91.375 122.403 91.0199 123.682 90.3097 124.847C89.6278 126.011 88.7045 126.949 87.5398 127.659C86.4034 128.341 85.125 128.682 83.7045 128.682Z" fill="black"/>
</svg>
