<svg width="140" height="147" viewBox="0 0 140 147" fill="none" xmlns="http://www.w3.org/2000/svg">
<path d="M140 73.5C140 114.093 108.66 147 70 147C31.3401 147 0 114.093 0 73.5C0 32.9071 31.3401 0 70 0C108.66 0 140 32.9071 140 73.5Z" fill="#BB1515"/>
<path d="M30.7522 42.7624C27.5753 39.3062 27.8018 33.929 31.258 30.7522C34.7142 27.5753 40.0913 27.8018 43.2682 31.258L109.214 103.002C112.391 106.458 112.164 111.836 108.708 115.012C105.252 118.189 99.8747 117.963 96.6979 114.507L30.7522 42.7624Z" fill="#D9D9D9"/>
<path d="M98.4256 32.4189C101.745 29.0995 107.127 29.0994 110.446 32.4189C113.766 35.7384 113.766 41.1203 110.446 44.4397L41.5404 113.346C38.221 116.665 32.8391 116.665 29.5196 113.346C26.2001 110.026 26.2001 104.644 29.5196 101.325L98.4256 32.4189Z" fill="#D9D9D9"/>
</svg>
